<svg width="24" height="24" viewBox="0 0 24 24" fill="none" xmlns="http://www.w3.org/2000/svg">
<path d="M16.3716 7.62889C16.1222 6.28556 15.5105 5.03588 14.6027 4.01479C13.6949 2.9937 12.5254 2.23999 11.2205 1.83504C9.91562 1.43009 8.52489 1.38928 7.1985 1.71703C5.8721 2.04478 4.66043 2.72863 3.69432 3.69475C2.72821 4.66086 2.04436 5.87253 1.71661 7.19892C1.38886 8.52532 1.42966 9.91605 1.83461 11.2209C2.23956 12.5258 2.99327 13.6953 4.01436 14.6031C5.03546 15.511 6.28513 16.1226 7.62846 16.372C7.87789 17.7153 8.48952 18.965 9.39733 19.9861C10.3051 21.0072 11.4746 21.7609 12.7795 22.1659C14.0844 22.5708 15.4752 22.6116 16.8016 22.2839C18.128 21.9561 19.3396 21.2723 20.3057 20.3062C21.2718 19.34 21.9557 18.1284 22.2834 16.802C22.6112 15.4756 22.5704 14.0849 22.1654 12.78C21.7605 11.4751 21.0068 10.3056 19.9857 9.39776C18.9646 8.48995 17.7149 7.87831 16.3716 7.62889ZM9.43971 12.7505L11.25 14.5608C10.5356 14.8518 9.77143 15.0011 9.00003 15.0005C8.99938 14.229 9.14871 13.4649 9.43971 12.7505ZM12.6038 13.7939L10.2066 11.3967C10.5459 10.9468 10.9463 10.5463 11.3963 10.207L13.7935 12.6042C13.4541 13.0541 13.0537 13.4546 12.6038 13.7939ZM14.5603 11.2505L12.75 9.44014C13.4644 9.14914 14.2286 8.99981 15 9.00045C15.0007 9.77186 14.8513 10.536 14.5603 11.2505ZM3.00003 9.00045C2.99715 7.53803 3.52848 6.1249 4.49417 5.02665C5.45985 3.92841 6.7934 3.22067 8.24418 3.03644C9.69496 2.85221 11.1631 3.20419 12.3726 4.02622C13.5821 4.84825 14.4498 6.08372 14.8125 7.50045C12.8895 7.55099 11.0593 8.33777 9.69944 9.69846C8.33963 11.0591 7.55402 12.8899 7.50471 14.813C6.21628 14.4796 5.07494 13.728 4.25969 12.676C3.44444 11.6241 3.00139 10.3313 3.00003 9.00045ZM15 21.0005C13.6698 20.9994 12.3775 20.557 11.3256 19.7426C10.2738 18.9283 9.5218 17.788 9.18753 16.5005C11.1114 16.4511 12.9428 15.6648 14.3036 14.304C15.6644 12.9432 16.4507 11.1118 16.5 9.18795C17.9168 9.55068 19.1522 10.4183 19.9743 11.6279C20.7963 12.8374 21.1483 14.3055 20.964 15.7563C20.7798 17.2071 20.0721 18.5406 18.9738 19.5063C17.8756 20.472 16.4625 21.0033 15 21.0005Z" fill="#525252"/>
</svg>
