<svg width="177" height="19" viewBox="0 0 177 19" fill="none" xmlns="http://www.w3.org/2000/svg">
<path d="M7.31339 18.3945V10.1839H10.2081L10.6415 6.98403H7.31331V4.94106C7.31331 4.01463 7.58348 3.38332 8.97893 3.38332L10.7586 3.38252V0.520603C10.4508 0.481677 9.39429 0.394531 8.16531 0.394531C5.59929 0.394531 3.84255 1.88571 3.84255 4.62426V6.98403H0.94043V10.1839H3.84255V18.3945H7.31339V18.3945Z" fill="#736BEA"/>
<path d="M45.8767 2.09699V2.09375H46.7207L47.029 2.15534C47.2346 2.19533 47.4213 2.24773 47.589 2.31256C47.7567 2.3774 47.9191 2.45304 48.0759 2.53948C48.2328 2.62592 48.3751 2.714 48.5028 2.80368C48.6294 2.89229 48.743 2.9863 48.8437 3.0857C48.9432 3.1862 49.0985 3.21213 49.3095 3.1635C49.5205 3.11488 49.7477 3.04734 49.9912 2.9609C50.2346 2.87446 50.4754 2.77721 50.7135 2.66915C50.9515 2.56109 51.0965 2.49248 51.1485 2.4633C51.1993 2.43306 51.2264 2.41685 51.2296 2.41468L51.2328 2.40981L51.2491 2.40171L51.2653 2.39361L51.2815 2.3855L51.2978 2.3774L51.301 2.37253L51.3059 2.36929L51.3108 2.36605L51.314 2.36119L51.3302 2.35633L51.3465 2.35308L51.3432 2.3774L51.3383 2.40171L51.3302 2.42602L51.3221 2.45033L51.314 2.46654L51.3059 2.48275L51.2978 2.50706C51.2924 2.52327 51.287 2.54488 51.2815 2.5719C51.2761 2.59892 51.2247 2.70696 51.1273 2.89607C51.03 3.08517 50.9082 3.27696 50.7621 3.47146C50.6161 3.66597 50.4851 3.81291 50.3694 3.91233C50.2525 4.01283 50.1751 4.08306 50.1373 4.12304C50.0994 4.1641 50.0534 4.20191 49.9993 4.2365L49.9181 4.28999L49.9019 4.29809L49.8857 4.3062L49.8824 4.31106L49.8776 4.3143L49.8727 4.31754L49.8694 4.32241L49.8532 4.33051L49.837 4.33861L49.8338 4.34348L49.8289 4.34672L49.824 4.34996L49.8208 4.35482L49.8175 4.35969L49.8126 4.36293L49.8078 4.36617L49.8045 4.37103H49.8857L50.3401 4.27378C50.6431 4.20895 50.9326 4.13061 51.2085 4.03876L51.6467 3.89288L51.6954 3.87667L51.7198 3.86857L51.736 3.86047L51.7522 3.85236L51.7685 3.84426L51.7847 3.83615L51.8171 3.83129L51.8496 3.82805V3.86047L51.8415 3.86371L51.8334 3.86857L51.8301 3.87343L51.8253 3.87667L51.8204 3.87992L51.8171 3.88478L51.8139 3.88964L51.809 3.89288L51.8042 3.89612L51.8009 3.90099L51.7977 3.90585L51.7928 3.90909L51.7847 3.9253L51.7766 3.94151L51.7717 3.94475C51.7695 3.94799 51.7008 4.03983 51.5656 4.22029C51.4303 4.40183 51.3573 4.49366 51.3465 4.49584C51.3356 4.49908 51.3205 4.51529 51.301 4.54446C51.2826 4.57471 51.1679 4.6952 50.9569 4.90591C50.7459 5.11662 50.5393 5.30408 50.3369 5.46834C50.1335 5.63367 50.0307 5.83681 50.0285 6.07778C50.0253 6.31766 50.0128 6.58889 49.9912 6.89144C49.9695 7.194 49.929 7.52086 49.8694 7.87205C49.8099 8.22324 49.718 8.62034 49.5935 9.06337C49.4691 9.50639 49.3176 9.93862 49.1391 10.36C48.9605 10.7815 48.7739 11.1596 48.5791 11.4946C48.3843 11.8296 48.2058 12.1133 48.0435 12.3456C47.8812 12.5779 47.7162 12.7967 47.5484 13.002C47.3807 13.2073 47.1687 13.4386 46.9122 13.6957C46.6547 13.9518 46.514 14.0923 46.4902 14.1171C46.4653 14.1409 46.3593 14.2295 46.1721 14.383C45.986 14.5375 45.7858 14.692 45.5715 14.8465C45.3584 15 45.1625 15.128 44.984 15.2307C44.8054 15.3333 44.5901 15.4505 44.338 15.5824C44.087 15.7153 43.8153 15.8385 43.5232 15.9519C43.231 16.0654 42.9226 16.1708 42.598 16.268C42.2734 16.3653 41.9596 16.4409 41.6566 16.4949C41.3537 16.5489 41.0101 16.5949 40.626 16.6327L40.0498 16.6894V16.6975H38.9948V16.6894L38.8568 16.6813C38.7649 16.6759 38.6891 16.6705 38.6296 16.6651C38.5701 16.6597 38.3456 16.63 37.956 16.576C37.5665 16.5219 37.2608 16.4679 37.039 16.4139C36.8172 16.3599 36.4871 16.2572 36.0489 16.1059C35.6107 15.9546 35.2357 15.8017 34.9241 15.6472C34.6135 15.4938 34.4188 15.3965 34.3398 15.3555C34.2619 15.3155 34.1742 15.2658 34.0768 15.2064L33.9308 15.1172L33.9275 15.1123L33.9226 15.1091L33.9178 15.1059L33.9145 15.101L33.8983 15.0929L33.8821 15.0848L33.8788 15.0799L33.874 15.0767L33.8691 15.0734L33.8658 15.0686L33.8626 15.0637L33.8577 15.0605H33.8496V15.0281L33.8658 15.0313L33.8821 15.0362L33.9551 15.0443C34.0038 15.0497 34.1364 15.0578 34.3528 15.0686C34.5692 15.0794 34.7991 15.0794 35.0426 15.0686C35.286 15.0578 35.5349 15.0335 35.7892 14.9956C36.0435 14.9578 36.3438 14.893 36.69 14.8011C37.0363 14.7093 37.3544 14.6002 37.6444 14.4737C37.9333 14.3462 38.1389 14.2511 38.2612 14.1885C38.3823 14.1269 38.5674 14.0123 38.8162 13.8448L39.1896 13.5936L39.1928 13.5888L39.1977 13.5855L39.2026 13.5823L39.2058 13.5774L39.209 13.5725L39.2139 13.5693L39.2188 13.5661L39.222 13.5612L39.2382 13.5563L39.2545 13.5531L39.2577 13.5369L39.2626 13.5207L39.2675 13.5174L39.2707 13.5126L39.1409 13.5045C39.0543 13.4991 38.9704 13.4937 38.8893 13.4883C38.8081 13.4829 38.681 13.4586 38.5079 13.4153C38.3347 13.3721 38.1481 13.3073 37.9479 13.2208C37.7477 13.1344 37.553 13.0317 37.3636 12.9129C37.1742 12.794 37.0373 12.6951 36.9529 12.6162C36.8696 12.5384 36.7614 12.4282 36.6283 12.2856C36.4963 12.1419 36.3816 11.9944 36.2842 11.8431C36.1869 11.6918 36.0938 11.5173 36.0051 11.3196L35.8703 11.0246L35.8622 11.0003L35.8541 10.976L35.8492 10.9597L35.846 10.9435L35.8703 10.9468L35.8947 10.9516L36.0732 10.976C36.1923 10.9922 36.3789 10.9976 36.6332 10.9922C36.8875 10.9868 37.0633 10.976 37.1607 10.9597C37.2581 10.9435 37.3176 10.9327 37.3392 10.9273L37.3717 10.9192L37.4123 10.9111L37.4529 10.903L37.4561 10.8982L37.461 10.8949L37.4659 10.8917L37.4691 10.8868L37.4366 10.8787L37.4042 10.8706L37.3717 10.8625L37.3392 10.8544L37.3068 10.8463C37.2851 10.8409 37.2473 10.8301 37.1932 10.8139C37.1391 10.7977 36.993 10.7382 36.7549 10.6356C36.5169 10.5329 36.3275 10.433 36.1869 10.3357C36.0458 10.2382 35.9114 10.1315 35.7843 10.0164C35.6577 9.89972 35.5187 9.74952 35.3672 9.56583C35.2157 9.38214 35.0805 9.16872 34.9614 8.92559C34.8424 8.68247 34.7531 8.45015 34.6936 8.22863C34.6343 8.00842 34.5952 7.78327 34.5768 7.55598L34.5475 7.21561L34.5638 7.21885L34.58 7.22371L34.5962 7.23182L34.6125 7.23992L34.6287 7.24802L34.6449 7.25613L34.8965 7.36959C35.0642 7.44523 35.2725 7.51007 35.5214 7.56409C35.7703 7.61811 35.919 7.64784 35.9677 7.65323L36.0408 7.66134H36.1869L36.1836 7.65648L36.1787 7.65323L36.1739 7.64999L36.1706 7.64513L36.1674 7.64027L36.1625 7.63703L36.1576 7.63378L36.1544 7.62892L36.1382 7.62082L36.1219 7.61271L36.1187 7.60785L36.1138 7.60461L36.1089 7.60137L36.1057 7.5965L36.0895 7.5884L36.0732 7.5803L36.07 7.57543C36.0668 7.57326 36.0202 7.53869 35.9304 7.4717C35.8417 7.40362 35.7486 7.31556 35.6512 7.2075C35.5538 7.09944 35.4565 6.98598 35.3591 6.86713C35.2615 6.748 35.1746 6.62054 35.0994 6.48623C35.0237 6.35116 34.9436 6.17934 34.8592 5.9708C34.7759 5.76333 34.7126 5.55425 34.6693 5.34354C34.626 5.13283 34.6016 4.92482 34.5962 4.71951C34.5908 4.5142 34.5962 4.33861 34.6125 4.19274C34.6287 4.04686 34.6612 3.88207 34.7098 3.69838C34.7585 3.51469 34.8289 3.32019 34.9208 3.11488L35.0588 2.80692L35.0669 2.78261L35.075 2.75829L35.0799 2.75505L35.0832 2.75019L35.0864 2.74533L35.0913 2.74209L35.0962 2.74533L35.0994 2.75019L35.1026 2.75505L35.1075 2.75829L35.1124 2.76154L35.1156 2.7664L35.1189 2.77126L35.1237 2.7745L35.1318 2.79071L35.14 2.80692L35.1448 2.81016L35.1481 2.81502L35.3672 3.05815C35.5133 3.22023 35.6864 3.40123 35.8866 3.60113C36.0868 3.80103 36.1977 3.90476 36.2193 3.91233C36.241 3.92097 36.268 3.94582 36.3005 3.98689C36.3329 4.02688 36.4411 4.12251 36.6251 4.27378C36.809 4.42505 37.0498 4.60066 37.3474 4.80055C37.6449 5.00045 37.975 5.19766 38.3374 5.39216C38.6999 5.58666 39.0895 5.76225 39.5061 5.91893C39.9227 6.07562 40.2148 6.17827 40.3825 6.22689C40.5503 6.27552 40.837 6.33765 41.2428 6.41329C41.6485 6.48894 41.9542 6.53756 42.1598 6.55917C42.3654 6.58077 42.5061 6.5932 42.5818 6.59645L42.6954 6.59969L42.6922 6.57538L42.6873 6.55106L42.6548 6.34846C42.6332 6.21339 42.6224 6.02429 42.6224 5.78116C42.6224 5.53804 42.6413 5.31383 42.6792 5.10851C42.7171 4.9032 42.7739 4.6952 42.8496 4.48449C42.9254 4.27378 42.9995 4.10466 43.072 3.97717C43.1456 3.85074 43.2419 3.70649 43.3609 3.5444C43.4799 3.38232 43.6341 3.21484 43.8235 3.04194C44.0128 2.86905 44.2292 2.71507 44.4727 2.58C44.7162 2.44494 44.9407 2.34227 45.1463 2.27204C45.3519 2.20181 45.525 2.15588 45.6657 2.13427C45.8063 2.11267 45.8767 2.10023 45.8767 2.09699Z" fill="#736BEA"/>
<path d="M83.8496 0.394531C87.4447 0.394531 89.2424 0.394336 90.5371 1.25098C91.1153 1.63353 91.6106 2.12887 91.9932 2.70703C92.8498 4.00176 92.8496 5.79946 92.8496 9.39453C92.8496 12.9896 92.8498 14.7873 91.9932 16.082C91.6106 16.6602 91.1153 17.1555 90.5371 17.5381C89.2424 18.3947 87.4447 18.3945 83.8496 18.3945C80.2545 18.3945 78.4568 18.3947 77.1621 17.5381C76.5839 17.1555 76.0886 16.6602 75.7061 16.082C74.8494 14.7873 74.8496 12.9896 74.8496 9.39453C74.8496 5.79946 74.8494 4.00176 75.7061 2.70703C76.0886 2.12887 76.5839 1.63353 77.1621 1.25098C78.4568 0.394336 80.2545 0.394531 83.8496 0.394531ZM83.8496 4.73438C81.2764 4.73438 79.1907 6.82042 79.1904 9.39355C79.1904 11.9669 81.2763 14.0537 83.8496 14.0537C86.4229 14.0536 88.5088 11.9668 88.5088 9.39355C88.5086 6.82048 86.4227 4.73446 83.8496 4.73438ZM83.8496 6.31055C85.5521 6.31063 86.9324 7.6911 86.9326 9.39355C86.9326 11.0962 85.5522 12.4765 83.8496 12.4766C82.1469 12.4766 80.7666 11.0963 80.7666 9.39355C80.7668 7.69105 82.1471 6.31055 83.8496 6.31055ZM88.6934 3.40625C88.0888 3.40625 87.5978 3.89645 87.5977 4.50098C87.5977 5.10563 88.0887 5.5957 88.6934 5.5957C89.2978 5.59545 89.7881 5.10547 89.7881 4.50098C89.7879 3.89661 89.2977 3.40651 88.6934 3.40625Z" fill="#736BEA"/>
<path d="M115.85 3.31556C115.85 2.73835 116.052 2.26216 116.458 1.88699C116.863 1.5118 117.39 1.32422 118.039 1.32422C118.676 1.32422 119.191 1.50891 119.585 1.87833C119.991 2.25928 120.193 2.75566 120.193 3.36751C120.193 3.92162 119.996 4.38337 119.603 4.75279C119.197 5.13374 118.664 5.32422 118.004 5.32422H117.987C117.35 5.32422 116.834 5.13374 116.44 4.75279C116.047 4.37184 115.85 3.89275 115.85 3.31556ZM116.075 18.4671V6.89997H119.933V18.4671H116.075ZM122.07 18.4671H125.927V12.0082C125.927 11.6041 125.973 11.2925 126.066 11.0731C126.228 10.6806 126.474 10.3487 126.804 10.0775C127.134 9.80617 127.548 9.67054 128.047 9.67054C129.344 9.67054 129.992 10.5421 129.992 12.2853V18.4671H133.85V11.835C133.85 10.1265 133.444 8.83071 132.633 7.94759C131.823 7.06448 130.751 6.62292 129.419 6.62292C127.925 6.62292 126.761 7.26361 125.927 8.54499V8.57963H125.909L125.927 8.54499V6.89997H122.07C122.093 7.26938 122.104 8.418 122.104 10.3459C122.104 12.2737 122.093 14.9808 122.07 18.4671Z" fill="#736BEA"/>
<path d="M167.288 16.3747L163.226 16.2988C161.91 16.2723 160.592 16.3251 159.302 16.051C157.341 15.6415 157.202 13.6336 157.057 11.9494C156.856 9.58155 156.934 7.17074 157.312 4.82266C157.525 3.50514 158.365 2.71897 159.664 2.63342C164.05 2.32295 168.464 2.35974 172.84 2.50459C173.302 2.51787 173.767 2.59044 174.223 2.67306C176.472 3.07597 176.527 5.35137 176.673 7.26683C176.818 9.20205 176.757 11.1472 176.479 13.0693C176.256 14.6607 175.829 15.9952 174.029 16.124C171.773 16.2925 169.569 16.4281 167.307 16.3849C167.307 16.3747 167.294 16.3747 167.288 16.3747ZM164.9 12.3457C166.6 11.3483 168.267 10.3675 169.957 9.3768C168.254 8.37939 166.59 7.3986 164.9 6.40788V12.3457Z" fill="#736BEA"/>
</svg>
